<svg width="433" height="92" viewBox="0 0 433 92" fill="none" xmlns="http://www.w3.org/2000/svg">
<g clip-path="url(#clip0_37_328)">
<path d="M117.957 61.8958C117.276 61.217 116.928 60.3172 116.928 59.1964V11.8546C117.197 11.7441 117.625 11.6178 118.21 11.4757C118.78 11.3337 119.398 11.2705 120.062 11.2705C122.484 11.2705 123.687 12.3124 123.687 14.3803V57.0179H147.32C147.921 57.6336 148.222 58.565 148.222 59.7962C148.222 60.7592 147.969 61.5169 147.478 62.0694C146.987 62.6377 146.323 62.9061 145.499 62.9061H120.553C119.508 62.9061 118.638 62.5746 117.957 61.8958Z" fill="white"/>
<path d="M168.467 22.5898C173.248 22.5898 177.031 23.6633 179.832 25.8102C182.634 27.957 184.027 31.3352 184.027 35.9447V55.4876C184.027 56.7031 183.79 57.6187 183.331 58.2501C182.856 58.8815 182.159 59.4814 181.225 60.0181C179.912 60.7916 178.17 61.4546 176.002 62.0387C173.833 62.6228 171.348 62.9069 168.546 62.9069C163.386 62.9069 159.397 61.8966 156.564 59.8603C153.731 57.8239 152.322 54.8877 152.322 51.036C152.322 47.4052 153.509 44.6743 155.867 42.8273C158.226 40.9804 161.55 39.8438 165.824 39.4018L177.521 38.2494V35.9447C177.521 33.1979 176.698 31.1931 175.052 29.9303C173.406 28.6674 171.19 28.036 168.388 28.036C166.077 28.036 163.909 28.3675 161.882 29.0305C159.856 29.6935 158.036 30.4354 156.453 31.2563C156.01 30.8774 155.614 30.4354 155.266 29.9303C154.902 29.4409 154.728 28.8884 154.728 28.2885C154.728 27.515 154.918 26.8836 155.298 26.3942C155.678 25.9049 156.279 25.4313 157.102 24.9893C158.59 24.2158 160.284 23.6317 162.199 23.2213C164.114 22.8108 166.204 22.6056 168.451 22.6056L168.467 22.5898ZM168.546 57.4608C170.857 57.4608 172.757 57.224 174.276 56.7662C175.78 56.3084 176.872 55.8507 177.521 55.4086V43.4588L167.312 44.5322C164.463 44.8006 162.341 45.4478 160.964 46.4739C159.587 47.4841 158.907 48.9838 158.907 50.9728C158.907 53.0566 159.698 54.6667 161.297 55.7875C162.895 56.9083 165.301 57.4766 168.546 57.4766V57.4608Z" fill="white"/>
<path d="M204.779 62.6539C203.512 62.8276 202.23 62.9065 200.916 62.9065C198.004 62.9065 195.994 62.4014 194.87 61.4069C193.746 60.4123 193.176 58.6128 193.176 56.0081V11.6814C193.841 11.5709 194.791 11.413 196.057 11.2236C197.323 11.0342 198.574 10.9395 199.84 10.9395C202.578 10.9395 204.557 11.413 205.776 12.3602C206.979 13.3073 207.58 15.1385 207.58 17.8537V31.319H223.393V11.6814C224.058 11.5709 225.008 11.413 226.274 11.2236C227.541 11.0342 228.791 10.9395 230.057 10.9395C232.796 10.9395 234.774 11.4446 235.993 12.4391C237.196 13.4336 237.798 15.2964 237.798 18.0115V62.1646C237.196 62.3382 236.262 62.4961 234.996 62.6697C233.73 62.8434 232.448 62.9223 231.134 62.9223C228.221 62.9223 226.211 62.4171 225.087 61.4226C223.963 60.4281 223.393 58.6285 223.393 56.0239V42.7953H207.58V62.1646C206.979 62.3382 206.045 62.4961 204.779 62.6697V62.6539Z" fill="white"/>
<path d="M245.364 23.3002C245.966 23.1423 246.836 22.9845 247.96 22.8266C249.084 22.6688 250.303 22.5898 251.616 22.5898C254.355 22.5898 256.333 23.0318 257.552 23.9001C258.755 24.7683 259.357 26.4416 259.357 28.9358V46.3634C259.357 48.526 259.911 50.073 261.003 50.9886C262.095 51.92 263.694 52.3778 265.783 52.3778C267.05 52.3778 268.079 52.2673 268.87 52.062C269.661 51.8568 270.279 51.6358 270.722 51.4306V23.3002C271.323 23.1423 272.194 22.9845 273.318 22.8266C274.442 22.6688 275.661 22.5898 276.974 22.5898C279.713 22.5898 281.691 23.0318 282.91 23.9001C284.113 24.7683 284.715 26.4416 284.715 28.9358V53.4039C284.715 56.0401 283.559 58.0291 281.264 59.3393C279.349 60.5075 277.054 61.3915 274.394 61.9914C271.735 62.5912 268.838 62.9069 265.704 62.9069C262.744 62.9069 260.006 62.5912 257.505 61.9598C255.004 61.3284 252.851 60.3496 251.047 59.0236C249.242 57.6976 247.833 56.0085 246.852 53.909C245.871 51.8253 245.364 49.2995 245.364 46.3476V23.3002Z" fill="white"/>
<path d="M303.25 47.8781C304.026 49.7409 305.308 51.0511 307.113 51.8088C308.917 52.5665 310.959 52.9296 313.207 52.9296C315.454 52.9296 317.702 52.6612 319.792 52.1087C321.881 51.5562 323.543 50.9248 324.809 50.1987C325.68 50.7196 326.424 51.4457 327.025 52.3771C327.627 53.3085 327.928 54.303 327.928 55.3291C327.928 56.6235 327.548 57.7443 326.772 58.6757C325.997 59.607 324.92 60.3963 323.527 61.012C322.134 61.6276 320.472 62.0854 318.541 62.3696C316.626 62.6537 314.505 62.7958 312.194 62.7958C308.949 62.7958 305.957 62.3696 303.171 61.5171C300.401 60.6647 297.995 59.3702 295.969 57.6654C293.943 55.9605 292.344 53.7978 291.189 51.209C290.033 48.6201 289.463 45.5734 289.463 42.1005C289.463 38.6276 290.049 35.7388 291.236 33.2604C292.423 30.7978 293.975 28.7772 295.922 27.1829C297.869 25.6043 300.085 24.4361 302.554 23.6784C305.023 22.9207 307.556 22.5576 310.136 22.5576C313.048 22.5576 315.692 22.968 318.082 23.8047C320.472 24.6414 322.53 25.7779 324.255 27.2302C325.981 28.6825 327.31 30.419 328.244 32.4396C329.178 34.4602 329.637 36.6702 329.637 39.0538C329.637 40.8219 329.115 42.1637 328.07 43.095C327.025 44.0264 325.569 44.6263 323.701 44.8788L303.203 47.8308L303.25 47.8781ZM310.247 32.2501C308.157 32.2501 306.416 32.85 305.023 34.0339C303.63 35.2337 302.791 36.907 302.506 39.0854L316.499 36.907C316.452 36.386 316.278 35.8493 316.008 35.3126C315.739 34.7601 315.344 34.2549 314.853 33.7971C314.362 33.3236 313.729 32.9605 312.954 32.6764C312.178 32.3922 311.276 32.2501 310.231 32.2501H310.247Z" fill="white"/>
<path d="M348.363 62.1168C347.761 62.2747 346.891 62.4326 345.767 62.5904C344.643 62.7483 343.424 62.8272 342.11 62.8272C339.372 62.8272 337.393 62.3852 336.175 61.517C334.972 60.6488 334.37 58.9755 334.37 56.4971V33.0235C334.37 31.4923 334.782 30.1663 335.605 29.0297C336.428 27.8931 337.552 26.9144 338.976 26.0619C340.892 24.9569 343.139 24.1203 345.688 23.5362C348.236 22.9521 350.911 22.668 353.713 22.668C359.696 22.668 362.688 24.7043 362.688 28.7613C362.688 29.7085 362.546 30.5925 362.276 31.4133C362.007 32.2342 361.675 32.9288 361.295 33.5129C360.25 33.3076 358.747 33.1971 356.768 33.1971C355.343 33.1971 353.871 33.355 352.368 33.6707C350.864 33.9864 349.534 34.46 348.379 35.0914V62.1168H348.363Z" fill="white"/>
<path d="M381.382 62.8276C376.554 62.8276 372.834 61.7384 370.222 59.5441C367.611 57.3499 366.313 53.7981 366.313 48.8729V11.7603C366.914 11.6025 367.785 11.413 368.909 11.2236C370.033 11.0342 371.22 10.9395 372.486 10.9395C375.177 10.9395 377.124 11.413 378.327 12.3286C379.53 13.26 380.131 14.9806 380.131 17.5064V22.6052H390.911C391.243 23.2051 391.56 23.9628 391.861 24.8626C392.161 25.7624 392.32 26.7727 392.32 27.8619C392.32 29.772 391.892 31.1611 391.038 32.0136C390.183 32.866 389.043 33.2922 387.618 33.2922H380.131V47.9099C380.131 49.3307 380.59 50.341 381.493 50.9408C382.395 51.5407 383.677 51.8406 385.323 51.8406C386.146 51.8406 387.001 51.7775 387.872 51.6354C388.742 51.4933 389.518 51.3197 390.183 51.0987C390.673 51.6985 391.101 52.3773 391.465 53.1035C391.829 53.8454 392.003 54.7294 392.003 55.7713C392.003 57.855 391.227 59.5441 389.66 60.8543C388.093 62.1646 385.339 62.8276 381.382 62.8276Z" fill="white"/>
<path d="M413.246 22.5894C416.206 22.5894 418.912 22.8735 421.35 23.4418C423.788 24.0101 425.877 24.8783 427.602 26.0465C429.328 27.2146 430.657 28.6985 431.591 30.4823C432.525 32.2661 432.984 34.3814 432.984 36.8282V54.2558C432.984 55.6134 432.589 56.7026 431.797 57.5708C431.006 58.4233 430.056 59.1652 428.964 59.7966C425.402 61.8172 420.369 62.8275 413.895 62.8275C410.982 62.8275 408.37 62.5749 406.028 62.054C403.701 61.5331 401.69 60.7596 400.013 59.7177C398.335 58.6758 397.053 57.3498 396.15 55.7554C395.248 54.1453 394.789 52.2826 394.789 50.1515C394.789 46.5681 395.913 43.8213 398.161 41.8955C400.408 39.9696 403.891 38.7856 408.624 38.3121L419.403 37.2228V36.6703C419.403 35.1707 418.707 34.0972 417.298 33.4342C415.905 32.787 413.879 32.4555 411.251 32.4555C409.225 32.4555 407.199 32.6607 405.204 33.0712C403.194 33.4816 401.406 34.0025 399.807 34.634C399.095 34.1604 398.493 33.45 398.002 32.4871C397.512 31.5241 397.258 30.5296 397.258 29.4878C397.258 28.146 397.607 27.0567 398.287 26.2517C398.968 25.4466 400.028 24.7678 401.453 24.1837C403.052 23.6154 404.92 23.205 407.088 22.9366C409.257 22.6841 411.299 22.542 413.23 22.542L413.246 22.5894ZM413.895 53.1824C414.828 53.1824 415.857 53.0876 416.981 52.914C418.105 52.7403 418.944 52.4878 419.498 52.1721V45.9524L413.562 46.426C412.027 46.5365 410.76 46.8364 409.779 47.3574C408.798 47.8783 408.291 48.6518 408.291 49.6937C408.291 50.7355 408.719 51.5722 409.573 52.2194C410.428 52.8666 411.868 53.1981 413.895 53.1981V53.1824Z" fill="white"/>
<path d="M50.2884 82.6074C49.7977 82.0233 49.3386 81.4235 48.8954 80.792C48.7688 80.6184 48.6422 80.429 48.5314 80.2395C47.9774 79.4187 47.4708 78.5504 47.0118 77.6822C46.157 76.0247 45.4606 74.304 44.954 72.5045C44.6375 71.4152 44.4 70.3102 44.2101 69.1894C44.1784 68.9526 44.1468 68.7316 44.1151 68.4949L40.5694 72.0309V77.8717C40.5694 79.4345 39.3031 80.6973 37.736 80.6973C36.169 80.6973 34.9027 79.4345 34.9027 77.8717V72.0309L17.6966 54.8717C16.5886 53.7666 16.5886 51.9828 17.6966 50.8778C18.8047 49.7728 20.5933 49.7728 21.7014 50.8778L34.9027 64.0432V50.7042L23.3634 39.1963C22.2554 38.0913 22.2554 36.3075 23.3634 35.2025C24.4714 34.0975 26.2601 34.0975 27.3681 35.2025L34.9027 42.7165V18.2642C34.9027 16.7014 36.169 15.4386 37.736 15.4386C39.3031 15.4386 40.5694 16.7014 40.5694 18.2642V42.7165L48.104 35.2025C49.212 34.0975 51.0007 34.0975 52.1087 35.2025C53.2167 36.3075 53.2167 38.0913 52.1087 39.1963L40.5694 50.7042V64.0432L44.1626 60.4598C45.0648 54.3507 47.914 48.6047 52.2987 44.1846C52.3303 44.1531 52.362 44.1057 52.4095 44.0741L54.5938 41.8957C54.5938 41.8957 59.8965 36.3075 68.5708 31.8559L68.7766 31.6507C68.1592 30.7666 67.5102 29.8826 66.7979 29.046C66.054 28.1462 65.2625 27.278 64.4236 26.4413L62.3025 24.326L61.701 23.7419L37.9576 0L14.42 23.4736L11.4759 26.4097C11.4759 26.4097 11.3809 26.5045 11.3334 26.5518C3.98879 33.9712 -0.142556 44.1846 -9.56773e-05 54.6033C0.0315622 56.466 0.189851 58.313 0.474772 60.1126C0.712206 61.628 1.04461 63.1119 1.45616 64.5642C2.15264 66.9794 3.07071 69.2999 4.22623 71.5257C4.84355 72.7097 5.5242 73.8463 6.25233 74.9671C6.41062 75.2196 6.56891 75.4564 6.74302 75.709C7.32869 76.5456 7.96185 77.3507 8.61084 78.14C9.59223 79.324 10.6369 80.4447 11.7608 81.5182C13.3912 83.0652 15.1482 84.4386 17.0002 85.6383C18.0607 86.3329 19.1371 86.9801 20.2609 87.5484C24.1232 89.569 28.302 90.9108 32.655 91.5106C34.0637 91.7001 35.4725 91.8106 36.9129 91.8579C37.2612 91.8579 37.5936 91.8895 37.9418 91.8895C44.1784 91.8895 50.1934 90.3741 55.5911 87.5642C54.5622 86.8222 53.565 86.0172 52.6311 85.1331C51.7921 84.3439 51.0007 83.4914 50.2725 82.6232L50.2884 82.6074Z" fill="#88D656"/>
<path d="M57.2373 86.6641C57.7597 86.3484 58.282 86.0327 58.8044 85.7012C58.2978 86.0327 57.7755 86.3484 57.2373 86.6641Z" fill="white"/>
<path d="M105.231 61.2806C105.231 61.1385 105.199 60.9807 105.183 60.8386C105.072 59.702 104.882 58.5812 104.645 57.4762C103.901 54.0822 102.54 50.8304 100.656 47.8942C100.007 46.8997 99.3106 45.9367 98.535 45.0212C97.9809 44.3424 97.3953 43.6952 96.7621 43.0795L77.0235 23.3945L68.7766 31.619L68.5708 31.8242L59.485 40.8853L57.3006 43.0637C57.3006 43.0637 57.2373 43.1426 57.1898 43.1742C54.0715 46.3156 51.7763 50.1358 50.3517 54.2717C49.2912 57.3341 48.7372 60.5702 48.753 63.8537C48.753 63.9326 48.753 64.0116 48.753 64.0747C48.7688 65.4639 48.8955 66.8372 49.1013 68.179C49.2754 69.2998 49.5286 70.4206 49.8452 71.4941C50.3517 73.2936 51.0482 75.0301 51.903 76.6718C52.362 77.5558 52.8685 78.4083 53.4225 79.2291C53.5492 79.4186 53.66 79.5922 53.7866 79.7816C54.214 80.3973 54.6889 80.9971 55.1796 81.597C55.9077 82.481 56.6833 83.3177 57.5381 84.107C58.0446 84.5805 58.5669 85.0225 59.1051 85.4488C59.8649 86.0644 60.6405 86.6485 61.4478 87.1694C62.2393 87.6904 63.0465 88.1639 63.8855 88.6059C66.7663 90.1056 69.8846 91.1159 73.1295 91.5579C74.1743 91.7 75.2348 91.7789 76.2953 91.8105C76.5486 91.8105 76.8019 91.8262 77.0709 91.8262C82.6586 91.8262 88.0246 90.2161 92.6149 87.2168C93.5647 86.6011 94.4669 85.9223 95.3533 85.1962C95.7807 84.8489 96.1923 84.4858 96.6038 84.0912C100.213 80.6972 102.777 76.514 104.17 71.8729C104.471 70.8784 104.724 69.8523 104.914 68.8105C104.961 68.5263 105.009 68.2422 105.056 67.958C105.199 67.0424 105.294 66.1111 105.341 65.1639C105.357 64.8324 105.373 64.4851 105.389 64.1536C105.389 64.1063 105.389 64.0747 105.389 64.0273C105.389 63.0802 105.373 62.1488 105.294 61.2175L105.231 61.2806Z" fill="#00C2F2"/>
<path d="M121.534 86.8068C122.484 86.8068 123.181 86.6174 123.624 86.2227C124.083 85.8281 124.304 85.3387 124.304 84.7231C124.304 84.1863 124.13 83.7443 123.782 83.4286C123.434 83.0971 122.896 82.8288 122.136 82.592L120.442 82.071C119.92 81.9132 119.445 81.7237 119.018 81.5027C118.59 81.2817 118.226 81.0292 117.925 80.745C117.625 80.4609 117.403 80.1136 117.245 79.7189C117.087 79.3243 117.007 78.8665 117.007 78.3456C117.007 77.1616 117.451 76.2303 118.321 75.5515C119.192 74.8727 120.395 74.5254 121.883 74.5254C122.5 74.5254 123.07 74.5727 123.592 74.6675C124.115 74.7622 124.574 74.9043 124.953 75.0779C125.333 75.2515 125.634 75.4568 125.856 75.6778C126.077 75.9145 126.188 76.1671 126.188 76.4355C126.188 76.6881 126.125 76.9091 125.998 77.0985C125.872 77.2879 125.713 77.4458 125.539 77.5563C125.159 77.2721 124.669 77.0353 124.067 76.8301C123.466 76.6249 122.785 76.5302 122.057 76.5302C121.234 76.5302 120.601 76.6881 120.141 77.0196C119.682 77.3511 119.461 77.7931 119.461 78.3456C119.461 78.7876 119.619 79.1506 119.936 79.4348C120.252 79.7189 120.775 79.9557 121.487 80.1609L122.785 80.5398C124.051 80.9187 125.017 81.4238 125.713 82.071C126.41 82.7183 126.758 83.6023 126.758 84.7231C126.758 85.3229 126.647 85.8754 126.41 86.3648C126.172 86.8541 125.84 87.2962 125.413 87.6592C124.969 88.0223 124.431 88.2907 123.782 88.4959C123.133 88.6853 122.389 88.78 121.566 88.78C120.87 88.78 120.252 88.7169 119.682 88.6064C119.113 88.4801 118.622 88.338 118.21 88.1328C117.799 87.9434 117.482 87.7066 117.261 87.454C117.039 87.2014 116.928 86.9331 116.928 86.6489C116.928 86.349 117.023 86.0964 117.197 85.8912C117.371 85.686 117.593 85.5281 117.83 85.4176C118.195 85.7491 118.685 86.0649 119.303 86.3648C119.92 86.6647 120.664 86.8068 121.534 86.8068Z" fill="white"/>
<path d="M140.023 83.208C140.023 84.0604 139.896 84.8339 139.643 85.5127C139.389 86.2073 139.025 86.7914 138.582 87.265C138.123 87.7385 137.569 88.1174 136.904 88.37C136.239 88.6225 135.511 88.7646 134.704 88.7646C133.897 88.7646 133.153 88.6383 132.504 88.37C131.855 88.1016 131.285 87.7385 130.826 87.265C130.367 86.7914 130.019 86.2073 129.765 85.5127C129.512 84.8181 129.385 84.0604 129.385 83.208C129.385 82.3556 129.512 81.582 129.765 80.9033C130.019 80.2087 130.383 79.6404 130.842 79.151C131.301 78.6774 131.871 78.2986 132.535 78.046C133.2 77.7934 133.928 77.6514 134.72 77.6514C135.511 77.6514 136.239 77.7777 136.904 78.046C137.569 78.3144 138.123 78.6775 138.598 79.1668C139.057 79.6562 139.421 80.2402 139.674 80.919C139.928 81.5978 140.054 82.3713 140.054 83.2238L140.023 83.208ZM134.688 79.5299C133.786 79.5299 133.074 79.8456 132.551 80.4928C132.029 81.14 131.76 82.0398 131.76 83.208C131.76 84.3761 132.013 85.2759 132.52 85.9074C133.026 86.5388 133.754 86.8545 134.672 86.8545C135.59 86.8545 136.319 86.5388 136.825 85.9074C137.332 85.2759 137.585 84.3761 137.585 83.208C137.585 82.0398 137.332 81.1558 136.809 80.5086C136.287 79.8614 135.575 79.5299 134.657 79.5299H134.688Z" fill="white"/>
<path d="M144.566 88.591C144.138 88.591 143.806 88.5121 143.6 88.3384C143.394 88.1648 143.283 87.8964 143.283 87.5018V73.8943C143.394 73.8628 143.537 73.8312 143.727 73.7838C143.917 73.7365 144.138 73.7207 144.36 73.7207C144.803 73.7207 145.12 73.7996 145.325 73.9733C145.531 74.1311 145.642 74.4153 145.642 74.8099V88.4331C145.515 88.4805 145.373 88.5121 145.183 88.5594C144.993 88.591 144.787 88.6226 144.566 88.6226V88.591Z" fill="white"/>
<path d="M149.457 77.9821C149.568 77.9505 149.71 77.9189 149.9 77.8874C150.09 77.8558 150.311 77.8242 150.533 77.8242C150.976 77.8242 151.293 77.9031 151.483 78.0768C151.673 78.2504 151.784 78.5188 151.784 78.9292V84.4701C151.784 85.3383 152.005 85.9539 152.464 86.317C152.923 86.6801 153.556 86.8695 154.364 86.8695C154.886 86.8695 155.329 86.8222 155.693 86.7117C156.057 86.6012 156.342 86.4907 156.548 86.3802V77.9979C156.675 77.9663 156.817 77.9347 157.007 77.9031C157.197 77.8716 157.403 77.84 157.624 77.84C158.052 77.84 158.384 77.9189 158.59 78.0926C158.796 78.2662 158.907 78.5346 158.907 78.945V86.5064C158.907 86.8379 158.859 87.1063 158.748 87.3115C158.637 87.5167 158.432 87.722 158.115 87.9114C157.719 88.1324 157.213 88.3376 156.58 88.5112C155.947 88.6849 155.187 88.7796 154.332 88.7796C152.797 88.7796 151.578 88.4323 150.723 87.7535C149.868 87.0747 149.425 86.0013 149.425 84.5174V77.9979L149.457 77.9821Z" fill="white"/>
<path d="M167.755 79.5613C167.28 79.5613 166.837 79.6402 166.425 79.7981C166.014 79.9559 165.666 80.1927 165.381 80.5084C165.08 80.8242 164.858 81.203 164.684 81.6608C164.51 82.1186 164.431 82.6395 164.431 83.2394C164.431 84.4233 164.732 85.3231 165.349 85.9388C165.966 86.5544 166.774 86.8701 167.755 86.8701C168.325 86.8701 168.815 86.7912 169.211 86.6491C169.623 86.5071 169.971 86.3176 170.272 86.1124C170.462 86.2387 170.62 86.3808 170.747 86.5386C170.873 86.6965 170.921 86.9017 170.921 87.1385C170.921 87.5963 170.62 87.9909 170.003 88.3067C169.385 88.6224 168.594 88.7802 167.612 88.7802C166.789 88.7802 166.03 88.6697 165.349 88.4487C164.668 88.2277 164.083 87.8804 163.576 87.4227C163.085 86.9649 162.69 86.3808 162.421 85.6862C162.151 84.9916 162.009 84.1866 162.009 83.2552C162.009 82.3238 162.151 81.5187 162.452 80.8084C162.753 80.098 163.149 79.5297 163.639 79.0561C164.146 78.5984 164.732 78.2511 165.412 78.0143C166.093 77.7775 166.805 77.667 167.549 77.667C168.04 77.667 168.483 77.7144 168.895 77.8091C169.29 77.9038 169.639 78.0143 169.923 78.1721C170.208 78.33 170.43 78.5036 170.588 78.7089C170.747 78.9141 170.826 79.1193 170.826 79.3403C170.826 79.5455 170.762 79.7349 170.652 79.9086C170.541 80.0822 170.398 80.2085 170.24 80.3032C169.923 80.1138 169.575 79.9402 169.195 79.7823C168.815 79.6244 168.341 79.5613 167.771 79.5613H167.755Z" fill="white"/>
<path d="M173.802 75.7406C173.802 75.3459 173.928 75.0302 174.197 74.7618C174.466 74.4935 174.815 74.3672 175.226 74.3672C175.638 74.3672 175.986 74.4935 176.239 74.7618C176.492 75.0302 176.619 75.3459 176.619 75.7406C176.619 76.1352 176.492 76.4509 176.239 76.7193C175.986 76.9876 175.638 77.1139 175.226 77.1139C174.815 77.1139 174.466 76.9876 174.197 76.7193C173.928 76.4509 173.802 76.1352 173.802 75.7406ZM176.413 88.4166C176.302 88.464 176.16 88.4955 175.97 88.5429C175.78 88.5745 175.574 88.606 175.337 88.606C174.894 88.606 174.577 88.5271 174.371 88.3535C174.166 88.1798 174.055 87.9115 174.055 87.5168V78.0295C174.181 77.9979 174.324 77.9664 174.514 77.919C174.704 77.8716 174.91 77.8559 175.163 77.8559C175.59 77.8559 175.923 77.9348 176.113 78.1084C176.318 78.2663 176.413 78.5504 176.413 78.9609V88.4324V88.4166Z" fill="white"/>
<path d="M190.295 83.208C190.295 84.0604 190.169 84.8339 189.915 85.5127C189.662 86.2073 189.298 86.7914 188.855 87.265C188.396 87.7385 187.842 88.1174 187.177 88.37C186.512 88.6225 185.784 88.7646 184.977 88.7646C184.169 88.7646 183.425 88.6383 182.777 88.37C182.128 88.1016 181.558 87.7385 181.099 87.265C180.64 86.7914 180.291 86.2073 180.038 85.5127C179.785 84.8181 179.658 84.0604 179.658 83.208C179.658 82.3556 179.785 81.582 180.038 80.9033C180.291 80.2087 180.655 79.6404 181.114 79.151C181.573 78.6774 182.143 78.2986 182.808 78.046C183.473 77.7934 184.201 77.6514 184.993 77.6514C185.784 77.6514 186.512 77.7777 187.177 78.046C187.842 78.3144 188.396 78.6775 188.871 79.1668C189.33 79.6562 189.694 80.2402 189.947 80.919C190.2 81.5978 190.327 82.3713 190.327 83.2238L190.295 83.208ZM184.961 79.5299C184.059 79.5299 183.346 79.8456 182.824 80.4928C182.302 81.14 182.033 82.0398 182.033 83.208C182.033 84.3761 182.286 85.2759 182.792 85.9074C183.299 86.5388 184.027 86.8545 184.945 86.8545C185.863 86.8545 186.591 86.5388 187.098 85.9074C187.604 85.2759 187.858 84.3761 187.858 83.208C187.858 82.0398 187.604 81.1558 187.082 80.5086C186.56 79.8614 185.847 79.5299 184.929 79.5299H184.961Z" fill="white"/>
<path d="M199.888 80.0502C199.476 79.7029 198.922 79.5292 198.21 79.5292C197.687 79.5292 197.212 79.5924 196.801 79.7344C196.389 79.8765 196.025 80.0186 195.74 80.1765V88.4009C195.63 88.4482 195.487 88.4798 195.297 88.5272C195.107 88.5587 194.901 88.5903 194.68 88.5903C194.252 88.5903 193.92 88.5114 193.714 88.3377C193.509 88.1641 193.398 87.8957 193.398 87.5011V80.0975C193.398 79.7502 193.461 79.4819 193.603 79.2609C193.73 79.0557 193.968 78.8347 194.284 78.6294C194.696 78.3769 195.25 78.1401 195.93 77.9349C196.611 77.7296 197.371 77.6191 198.226 77.6191C199.682 77.6191 200.821 77.9506 201.645 78.5979C202.468 79.2451 202.879 80.2238 202.879 81.5498V88.3851C202.768 88.4325 202.626 88.464 202.436 88.5114C202.246 88.543 202.024 88.5745 201.803 88.5745C201.36 88.5745 201.043 88.4956 200.837 88.322C200.632 88.1641 200.521 87.88 200.521 87.4853V81.6288C200.521 80.9026 200.315 80.3659 199.903 80.0186L199.888 80.0502Z" fill="white"/>
<path d="M208.356 84.4071C208.562 85.2595 208.973 85.8909 209.575 86.3014C210.176 86.7118 210.952 86.917 211.902 86.917C212.535 86.917 213.105 86.8223 213.627 86.6171C214.149 86.4277 214.577 86.2067 214.893 85.9857C215.305 86.2224 215.527 86.5539 215.527 86.9959C215.527 87.2485 215.432 87.4853 215.242 87.7063C215.052 87.9273 214.783 88.1167 214.45 88.2588C214.118 88.4009 213.722 88.543 213.263 88.6219C212.804 88.7008 212.313 88.7482 211.791 88.7482C210.92 88.7482 210.129 88.6219 209.417 88.3851C208.704 88.1483 208.087 87.7852 207.58 87.3117C207.074 86.8381 206.678 86.2382 206.393 85.5436C206.124 84.8333 205.982 84.0282 205.982 83.0968C205.982 82.1655 206.108 81.4077 206.393 80.729C206.662 80.0502 207.026 79.4819 207.501 79.0241C207.96 78.5663 208.514 78.219 209.147 77.9822C209.781 77.7454 210.461 77.6191 211.174 77.6191C211.886 77.6191 212.551 77.7296 213.136 77.9664C213.722 78.2032 214.244 78.5189 214.672 78.9294C215.099 79.3398 215.432 79.8292 215.669 80.3975C215.906 80.9657 216.017 81.5814 216.017 82.2602C216.017 82.639 215.922 82.9074 215.748 83.0811C215.574 83.2547 215.305 83.3652 214.957 83.4283L208.388 84.3755L208.356 84.4071ZM211.142 79.4661C210.319 79.4661 209.638 79.7502 209.084 80.3027C208.53 80.8552 208.245 81.6445 208.214 82.6864L213.754 81.8971C213.69 81.2183 213.437 80.65 213.01 80.1765C212.582 79.7029 211.949 79.4661 211.142 79.4661Z" fill="white"/>
<path d="M226.876 85.5751C226.876 86.5696 226.496 87.3589 225.752 87.9271C225.008 88.4954 223.916 88.7796 222.491 88.7796C221.906 88.7796 221.367 88.7322 220.877 88.6533C220.386 88.5744 219.959 88.4323 219.61 88.2744C219.262 88.1166 218.977 87.9114 218.787 87.6904C218.597 87.4694 218.502 87.2168 218.502 86.9484C218.502 86.7274 218.566 86.5222 218.677 86.317C218.787 86.1276 218.946 85.9697 219.136 85.8434C219.563 86.1118 220.038 86.3643 220.576 86.5853C221.114 86.8063 221.747 86.9169 222.46 86.9169C223.14 86.9169 223.647 86.8064 224.011 86.5696C224.375 86.3328 224.549 86.0013 224.549 85.5751C224.549 85.1962 224.422 84.8963 224.185 84.6753C223.932 84.4543 223.568 84.2806 223.093 84.1543L221.557 83.7439C220.544 83.4755 219.785 83.1125 219.31 82.6389C218.835 82.1811 218.582 81.5339 218.582 80.7288C218.582 80.3026 218.677 79.8921 218.851 79.5133C219.025 79.1344 219.294 78.8029 219.642 78.5188C219.99 78.2346 220.434 78.0294 220.956 77.8716C221.478 77.7137 222.08 77.6348 222.76 77.6348C223.299 77.6348 223.789 77.6821 224.233 77.761C224.676 77.84 225.056 77.9505 225.372 78.0926C225.689 78.2346 225.942 78.4083 226.132 78.6135C226.306 78.8187 226.401 79.0397 226.401 79.2923C226.401 79.5449 226.354 79.7343 226.243 79.9079C226.132 80.0816 226.005 80.2236 225.831 80.3184C225.562 80.1605 225.166 79.9711 224.628 79.7816C224.09 79.5922 223.52 79.4817 222.903 79.4817C222.286 79.4817 221.779 79.5922 221.415 79.8132C221.051 80.0342 220.877 80.3341 220.877 80.7288C220.877 81.0287 220.972 81.2813 221.178 81.4707C221.383 81.6602 221.732 81.818 222.222 81.9443L223.52 82.2758C224.66 82.5757 225.499 82.9862 226.037 83.4913C226.575 83.9965 226.844 84.691 226.844 85.5593L226.876 85.5751Z" fill="white"/>
<path d="M236.801 84.4071C237.006 85.2595 237.418 85.8909 238.019 86.3014C238.621 86.7118 239.397 86.917 240.346 86.917C240.979 86.917 241.549 86.8223 242.072 86.6171C242.594 86.4277 243.021 86.2067 243.338 85.9857C243.749 86.2224 243.971 86.5539 243.971 86.9959C243.971 87.2485 243.876 87.4853 243.686 87.7063C243.496 87.9273 243.227 88.1167 242.895 88.2588C242.562 88.4009 242.167 88.543 241.708 88.6219C241.249 88.7008 240.758 88.7482 240.235 88.7482C239.365 88.7482 238.573 88.6219 237.861 88.3851C237.149 88.1483 236.532 87.7852 236.025 87.3117C235.518 86.8381 235.123 86.2382 234.838 85.5436C234.569 84.8333 234.426 84.0282 234.426 83.0968C234.426 82.1655 234.553 81.4077 234.838 80.729C235.107 80.0502 235.471 79.4819 235.946 79.0241C236.405 78.5663 236.959 78.219 237.592 77.9822C238.225 77.7454 238.906 77.6191 239.618 77.6191C240.33 77.6191 240.995 77.7296 241.581 77.9664C242.167 78.2032 242.689 78.5189 243.116 78.9294C243.544 79.3398 243.876 79.8292 244.114 80.3975C244.351 80.9657 244.462 81.5814 244.462 82.2602C244.462 82.639 244.367 82.9074 244.193 83.0811C244.019 83.2547 243.749 83.3652 243.401 83.4283L236.832 84.3755L236.801 84.4071ZM239.586 79.4661C238.763 79.4661 238.083 79.7502 237.529 80.3027C236.975 80.8552 236.69 81.6445 236.658 82.6864L242.198 81.8971C242.135 81.2183 241.882 80.65 241.454 80.1765C241.027 79.7029 240.394 79.4661 239.586 79.4661Z" fill="white"/>
<path d="M253.88 80.0502C253.468 79.7029 252.914 79.5292 252.202 79.5292C251.68 79.5292 251.205 79.5924 250.793 79.7344C250.382 79.8765 250.018 80.0186 249.733 80.1765V88.4009C249.622 88.4482 249.48 88.4798 249.29 88.5272C249.1 88.5587 248.894 88.5903 248.672 88.5903C248.245 88.5903 247.913 88.5114 247.707 88.3377C247.501 88.1641 247.39 87.8957 247.39 87.5011V80.0975C247.39 79.7502 247.453 79.4819 247.596 79.2609C247.723 79.0557 247.96 78.8347 248.277 78.6294C248.688 78.3769 249.242 78.1401 249.923 77.9349C250.603 77.7296 251.363 77.6191 252.218 77.6191C253.674 77.6191 254.814 77.9506 255.637 78.5979C256.46 79.2451 256.872 80.2238 256.872 81.5498V88.3851C256.761 88.4325 256.618 88.464 256.428 88.5114C256.239 88.543 256.017 88.5745 255.795 88.5745C255.352 88.5745 255.036 88.4956 254.83 88.322C254.624 88.1641 254.513 87.88 254.513 87.4853V81.6288C254.513 80.9026 254.307 80.3659 253.896 80.0186L253.88 80.0502Z" fill="white"/>
<path d="M268.3 88.4166C268.174 88.464 268.015 88.4956 267.825 88.5429C267.635 88.5745 267.414 88.6061 267.176 88.6061C266.717 88.6061 266.385 88.5271 266.179 88.3535C265.973 88.1798 265.878 87.8957 265.878 87.4853V75.9142C265.878 75.6617 265.942 75.4564 266.084 75.3144C266.227 75.1723 266.432 75.0618 266.686 74.9829C267.145 74.825 267.699 74.7145 268.348 74.6514C268.997 74.5882 269.63 74.5566 270.279 74.5566C272.226 74.5566 273.682 74.9513 274.632 75.7406C275.582 76.5299 276.056 77.6349 276.056 79.0556C276.056 80.0501 275.803 80.8868 275.281 81.5814C274.758 82.2759 274.03 82.7969 273.065 83.1441C273.429 83.5862 273.777 84.0439 274.125 84.4859C274.474 84.928 274.79 85.3384 275.107 85.7488C275.423 86.1592 275.692 86.5065 275.946 86.8223C276.199 87.138 276.389 87.4063 276.547 87.6115C276.468 87.9588 276.31 88.2114 276.056 88.4008C275.803 88.5745 275.518 88.6692 275.217 88.6692C274.853 88.6692 274.568 88.5903 274.363 88.4166C274.157 88.243 273.951 88.0062 273.73 87.7063L270.833 83.5388H268.316V88.4482L268.3 88.4166ZM270.469 81.5814C271.45 81.5814 272.21 81.3761 272.78 80.9499C273.35 80.5237 273.635 79.8923 273.635 79.0398C273.635 78.1874 273.35 77.5717 272.764 77.1613C272.194 76.7351 271.339 76.5299 270.216 76.5299C269.867 76.5299 269.535 76.5299 269.187 76.5772C268.854 76.6088 268.538 76.6404 268.269 76.6877V81.5814H270.453H270.469Z" fill="white"/>
<path d="M279.349 75.8509C279.349 75.4563 279.475 75.1405 279.744 74.8722C280.013 74.6038 280.362 74.4775 280.773 74.4775C281.185 74.4775 281.533 74.6038 281.786 74.8722C282.04 75.1405 282.166 75.4563 282.166 75.8509C282.166 76.2456 282.04 76.5613 281.786 76.8296C281.533 77.098 281.185 77.2243 280.773 77.2243C280.362 77.2243 280.013 77.098 279.744 76.8296C279.475 76.5613 279.349 76.2456 279.349 75.8509ZM281.96 88.4165C281.85 88.4638 281.707 88.4954 281.517 88.5427C281.327 88.5743 281.121 88.6059 280.884 88.6059C280.441 88.6059 280.124 88.527 279.918 88.3533C279.713 88.1797 279.602 87.9113 279.602 87.5167V78.0294C279.729 77.9978 279.871 77.9662 280.061 77.9189C280.251 77.8715 280.457 77.8557 280.71 77.8557C281.137 77.8557 281.47 77.9346 281.66 78.1083C281.865 78.2661 281.96 78.5503 281.96 78.9607V88.4322V88.4165Z" fill="white"/>
<path d="M287.564 84.4071C287.77 85.2595 288.181 85.8909 288.783 86.3014C289.384 86.7118 290.16 86.917 291.11 86.917C291.743 86.917 292.313 86.8223 292.835 86.6171C293.357 86.4277 293.785 86.2067 294.101 85.9857C294.513 86.2224 294.735 86.5539 294.735 86.9959C294.735 87.2485 294.64 87.4853 294.45 87.7063C294.26 87.9273 293.991 88.1167 293.658 88.2588C293.326 88.4009 292.93 88.543 292.471 88.6219C292.012 88.7008 291.521 88.7482 290.999 88.7482C290.128 88.7482 289.337 88.6219 288.625 88.3851C287.912 88.1483 287.295 87.7852 286.788 87.3117C286.282 86.8381 285.886 86.2382 285.601 85.5436C285.332 84.8333 285.19 84.0282 285.19 83.0968C285.19 82.1655 285.316 81.4077 285.601 80.729C285.87 80.0502 286.234 79.4819 286.709 79.0241C287.168 78.5663 287.722 78.219 288.355 77.9822C288.989 77.7454 289.669 77.6191 290.382 77.6191C291.094 77.6191 291.759 77.7296 292.344 77.9664C292.93 78.2032 293.452 78.5189 293.88 78.9294C294.307 79.3398 294.64 79.8292 294.877 80.3975C295.114 80.9657 295.225 81.5814 295.225 82.2602C295.225 82.639 295.13 82.9074 294.956 83.0811C294.782 83.2547 294.513 83.3652 294.165 83.4283L287.596 84.3755L287.564 84.4071ZM290.35 79.4661C289.527 79.4661 288.846 79.7502 288.292 80.3027C287.738 80.8552 287.453 81.6445 287.422 82.6864L292.962 81.8971C292.898 81.2183 292.645 80.65 292.218 80.1765C291.79 79.7029 291.157 79.4661 290.35 79.4661Z" fill="white"/>
<path d="M305.039 86.8544C304.754 87.028 304.406 87.1701 303.994 87.2806C303.583 87.3911 303.092 87.4542 302.522 87.4542C301.857 87.4542 301.24 87.3753 300.639 87.1859C300.053 87.0122 299.531 86.7281 299.071 86.3492C298.628 85.9704 298.264 85.4652 298.011 84.8496C297.758 84.2339 297.615 83.4762 297.615 82.5764C297.615 81.7713 297.742 81.0452 298.011 80.4453C298.28 79.8454 298.644 79.3245 299.119 78.9141C299.594 78.5036 300.148 78.1879 300.797 77.9827C301.446 77.7775 302.174 77.667 302.965 77.667C303.694 77.667 304.374 77.7617 305.007 77.9353C305.625 78.109 306.131 78.3142 306.527 78.551C306.78 78.7089 306.986 78.8825 307.128 79.0719C307.271 79.2614 307.334 79.5139 307.334 79.7823V88.0541C307.334 88.7487 307.208 89.3485 306.938 89.8537C306.669 90.3588 306.321 90.7693 305.862 91.085C305.403 91.4007 304.865 91.6375 304.232 91.7796C303.599 91.9216 302.918 92.0006 302.206 92.0006C301.446 92.0006 300.781 91.9374 300.227 91.7953C299.673 91.6533 299.261 91.5112 299.008 91.3691C298.549 91.1008 298.312 90.7535 298.312 90.3115C298.312 90.0747 298.359 89.8695 298.47 89.7116C298.581 89.5537 298.707 89.4275 298.866 89.317C299.214 89.538 299.673 89.7432 300.243 89.9326C300.813 90.122 301.414 90.201 302.063 90.201C303.013 90.201 303.741 90.0273 304.263 89.6642C304.786 89.3012 305.039 88.7329 305.039 87.9278V86.8386V86.8544ZM302.855 85.7178C303.361 85.7178 303.789 85.6546 304.137 85.5126C304.485 85.3705 304.77 85.1968 305.007 85.0074V79.9244C304.786 79.7981 304.501 79.6876 304.168 79.5771C303.836 79.4666 303.44 79.4192 302.997 79.4192C302.079 79.4192 301.351 79.6718 300.797 80.1927C300.243 80.7137 299.958 81.4872 299.958 82.5448C299.958 83.1131 300.037 83.6025 300.18 84.0129C300.322 84.4233 300.528 84.7548 300.781 85.0074C301.034 85.26 301.335 85.4494 301.699 85.5599C302.047 85.6704 302.427 85.7336 302.839 85.7336L302.855 85.7178Z" fill="white"/>
<path d="M321.074 83.208C321.074 84.0604 320.947 84.8339 320.694 85.5127C320.441 86.2073 320.077 86.7914 319.633 87.265C319.174 87.7385 318.62 88.1174 317.956 88.37C317.291 88.6225 316.563 88.7646 315.755 88.7646C314.948 88.7646 314.204 88.6383 313.555 88.37C312.906 88.1016 312.336 87.7385 311.877 87.265C311.418 86.7914 311.07 86.2073 310.817 85.5127C310.563 84.8181 310.437 84.0604 310.437 83.208C310.437 82.3556 310.563 81.582 310.817 80.9033C311.07 80.2087 311.434 79.6404 311.893 79.151C312.352 78.6774 312.922 78.2986 313.587 78.046C314.252 77.7934 314.98 77.6514 315.771 77.6514C316.563 77.6514 317.291 77.7777 317.956 78.046C318.62 78.3144 319.174 78.6775 319.649 79.1668C320.108 79.6562 320.472 80.2402 320.726 80.919C320.979 81.5978 321.105 82.3713 321.105 83.2238L321.074 83.208ZM315.739 79.5299C314.837 79.5299 314.125 79.8456 313.603 80.4928C313.08 81.14 312.811 82.0398 312.811 83.208C312.811 84.3761 313.064 85.2759 313.571 85.9074C314.077 86.5388 314.806 86.8545 315.724 86.8545C316.642 86.8545 317.37 86.5388 317.876 85.9074C318.383 85.2759 318.636 84.3761 318.636 83.208C318.636 82.0398 318.383 81.1558 317.861 80.5086C317.338 79.8614 316.626 79.5299 315.708 79.5299H315.739Z" fill="white"/>
<path d="M332.027 85.5751C332.027 86.5696 331.647 87.3589 330.903 87.9271C330.159 88.4954 329.067 88.7796 327.643 88.7796C327.057 88.7796 326.519 88.7322 326.028 88.6533C325.537 88.5744 325.11 88.4323 324.762 88.2744C324.414 88.1166 324.129 87.9114 323.939 87.6904C323.749 87.4694 323.654 87.2168 323.654 86.9484C323.654 86.7274 323.717 86.5222 323.828 86.317C323.939 86.1276 324.097 85.9697 324.287 85.8434C324.714 86.1118 325.189 86.3643 325.727 86.5853C326.266 86.8063 326.899 86.9169 327.611 86.9169C328.292 86.9169 328.798 86.8064 329.162 86.5696C329.526 86.3328 329.7 86.0013 329.7 85.5751C329.7 85.1962 329.574 84.8963 329.336 84.6753C329.083 84.4543 328.719 84.2806 328.244 84.1543L326.709 83.7439C325.696 83.4755 324.936 83.1125 324.461 82.6389C323.986 82.1811 323.733 81.5339 323.733 80.7288C323.733 80.3026 323.828 79.8921 324.002 79.5133C324.176 79.1344 324.445 78.8029 324.793 78.5188C325.142 78.2346 325.585 78.0294 326.107 77.8716C326.63 77.7137 327.231 77.6348 327.912 77.6348C328.45 77.6348 328.941 77.6821 329.384 77.761C329.827 77.84 330.207 77.9505 330.524 78.0926C330.84 78.2346 331.093 78.4083 331.283 78.6135C331.457 78.8187 331.552 79.0397 331.552 79.2923C331.552 79.5449 331.505 79.7343 331.394 79.9079C331.283 80.0816 331.157 80.2236 330.983 80.3184C330.714 80.1605 330.318 79.9711 329.78 79.7816C329.241 79.5922 328.672 79.4817 328.054 79.4817C327.437 79.4817 326.93 79.5922 326.566 79.8132C326.202 80.0342 326.028 80.3341 326.028 80.7288C326.028 81.0287 326.123 81.2813 326.329 81.4707C326.535 81.6602 326.883 81.818 327.374 81.9443L328.672 82.2758C329.811 82.5757 330.65 82.9862 331.188 83.4913C331.727 83.9965 331.996 84.691 331.996 85.5593L332.027 85.5751Z" fill="white"/>
<path d="M348.03 85.0541H342.538L341.43 88.4796C341.303 88.5428 341.145 88.5901 341.002 88.6059C340.86 88.6217 340.67 88.6533 340.464 88.6533C340.084 88.6533 339.784 88.5743 339.546 88.4007C339.309 88.2428 339.182 87.9903 339.182 87.6588C339.182 87.5009 339.198 87.3273 339.245 87.1694C339.293 87.0115 339.356 86.8379 339.42 86.6485C339.609 86.017 339.879 85.2119 340.243 84.2174C340.607 83.2229 340.971 82.1653 341.367 81.0603C341.762 79.9553 342.158 78.866 342.57 77.7926C342.981 76.7192 343.329 75.8036 343.63 75.0459C343.773 74.9511 344.01 74.8722 344.327 74.7933C344.643 74.7144 344.96 74.667 345.292 74.667C345.719 74.667 346.115 74.7301 346.463 74.8406C346.812 74.9669 347.033 75.1721 347.16 75.4721C347.492 76.3245 347.841 77.2874 348.236 78.3767C348.632 79.4659 349.012 80.5867 349.408 81.7233C349.803 82.8756 350.167 83.9964 350.531 85.1172C350.896 86.2222 351.212 87.2168 351.497 88.1165C351.37 88.2586 351.18 88.3849 350.975 88.4796C350.753 88.5743 350.5 88.6217 350.199 88.6217C349.803 88.6217 349.503 88.5428 349.328 88.3849C349.154 88.2271 348.996 87.9587 348.869 87.5956L348.015 85.0225L348.03 85.0541ZM345.292 76.7823C345.15 77.1927 344.976 77.6347 344.801 78.1557C344.627 78.6608 344.437 79.1975 344.232 79.7658C344.042 80.3341 343.836 80.9024 343.646 81.4707C343.456 82.039 343.266 82.6073 343.076 83.144H347.508C347.318 82.5441 347.112 81.9443 346.907 81.3444C346.701 80.7445 346.511 80.1605 346.321 79.608C346.131 79.0555 345.957 78.5345 345.799 78.0452C345.64 77.5558 345.498 77.1454 345.387 76.7981H345.276L345.292 76.7823Z" fill="white"/>
<path d="M360.994 86.8544C360.709 87.028 360.361 87.1701 359.95 87.2806C359.538 87.3911 359.047 87.4542 358.478 87.4542C357.813 87.4542 357.195 87.3753 356.594 87.1859C356.008 87.0122 355.486 86.7281 355.027 86.3492C354.584 85.9704 354.22 85.4652 353.966 84.8496C353.713 84.2339 353.571 83.4762 353.571 82.5764C353.571 81.7713 353.697 81.0452 353.966 80.4453C354.235 79.8454 354.599 79.3245 355.074 78.9141C355.549 78.5036 356.103 78.1879 356.752 77.9827C357.401 77.7775 358.129 77.667 358.921 77.667C359.649 77.667 360.33 77.7617 360.963 77.9353C361.58 78.109 362.087 78.3142 362.482 78.551C362.736 78.7089 362.941 78.8825 363.084 79.0719C363.226 79.2614 363.29 79.5139 363.29 79.7823V88.0541C363.29 88.7487 363.163 89.3485 362.894 89.8537C362.625 90.3588 362.276 90.7693 361.817 91.085C361.358 91.4007 360.82 91.6375 360.187 91.7796C359.554 91.9216 358.873 92.0006 358.161 92.0006C357.401 92.0006 356.736 91.9374 356.182 91.7953C355.628 91.6533 355.217 91.5112 354.964 91.3691C354.504 91.1008 354.267 90.7535 354.267 90.3115C354.267 90.0747 354.315 89.8695 354.425 89.7116C354.536 89.5537 354.663 89.4275 354.821 89.317C355.169 89.538 355.628 89.7432 356.198 89.9326C356.768 90.122 357.369 90.201 358.018 90.201C358.968 90.201 359.696 90.0273 360.219 89.6642C360.741 89.3012 360.994 88.7329 360.994 87.9278V86.8386V86.8544ZM358.81 85.7178C359.316 85.7178 359.744 85.6546 360.092 85.5126C360.44 85.3705 360.725 85.1968 360.963 85.0074V79.9244C360.741 79.7981 360.456 79.6876 360.124 79.5771C359.791 79.4666 359.396 79.4192 358.952 79.4192C358.034 79.4192 357.306 79.6718 356.752 80.1927C356.198 80.7137 355.913 81.4872 355.913 82.5448C355.913 83.1131 355.992 83.6025 356.135 84.0129C356.277 84.4233 356.483 84.7548 356.736 85.0074C356.99 85.26 357.29 85.4494 357.654 85.5599C358.003 85.6704 358.383 85.7336 358.794 85.7336L358.81 85.7178Z" fill="white"/>
<path d="M369.257 88.4165C369.146 88.4639 369.004 88.4954 368.814 88.5428C368.624 88.5744 368.418 88.6059 368.196 88.6059C367.769 88.6059 367.437 88.527 367.231 88.3534C367.025 88.1797 366.914 87.9114 366.914 87.5167V80.1605C366.914 79.7816 366.993 79.4817 367.136 79.2449C367.278 79.0081 367.532 78.7871 367.864 78.5819C368.291 78.3136 368.861 78.0926 369.526 77.9031C370.191 77.7137 370.951 77.6348 371.758 77.6348C373.072 77.6348 373.737 78.0136 373.737 78.7556C373.737 78.9292 373.705 79.1028 373.642 79.2607C373.578 79.4186 373.515 79.5606 373.436 79.6711C373.293 79.6396 373.103 79.608 372.866 79.5764C372.644 79.5449 372.407 79.5291 372.138 79.5291C371.536 79.5291 370.998 79.5922 370.492 79.7185C370.001 79.8448 369.574 80.0026 369.241 80.2079V88.4007L369.257 88.4165Z" fill="white"/>
<path d="M378.707 88.4801C378.612 88.5116 378.485 88.5432 378.295 88.5748C378.105 88.6064 377.9 88.6379 377.678 88.6379C377.251 88.6379 376.918 88.559 376.681 88.3854C376.459 88.2117 376.348 87.9276 376.348 87.5487V78.0614C376.459 78.0298 376.602 77.9983 376.807 77.9667C376.997 77.9351 377.203 77.9035 377.409 77.9035C377.852 77.9035 378.185 77.9983 378.406 78.1561C378.612 78.3298 378.723 78.6139 378.723 78.9928V88.4801H378.707ZM379.182 73.0099C379.641 73.0099 379.989 73.1362 380.242 73.3572C380.496 73.5782 380.622 73.815 380.622 74.0676C380.622 74.3201 380.575 74.5254 380.464 74.6832C380.353 74.8411 380.179 75.0305 379.926 75.2515L377.852 77.1774C377.456 77.1774 377.156 77.0827 376.934 76.8775C376.712 76.6722 376.602 76.4512 376.602 76.2145C376.602 76.0724 376.633 75.9303 376.697 75.804C376.76 75.6777 376.855 75.5672 376.982 75.4409L379.182 72.9941V73.0099Z" fill="white"/>
<path d="M387.666 79.5613C387.191 79.5613 386.748 79.6402 386.336 79.7981C385.925 79.9559 385.577 80.1927 385.292 80.5084C384.991 80.8242 384.769 81.203 384.595 81.6608C384.421 82.1186 384.342 82.6395 384.342 83.2394C384.342 84.4233 384.643 85.3231 385.26 85.9388C385.877 86.5544 386.685 86.8701 387.666 86.8701C388.236 86.8701 388.727 86.7912 389.122 86.6491C389.534 86.5071 389.882 86.3176 390.183 86.1124C390.373 86.2387 390.531 86.3808 390.658 86.5386C390.784 86.6965 390.832 86.9017 390.832 87.1385C390.832 87.5963 390.531 87.9909 389.914 88.3067C389.296 88.6224 388.505 88.7802 387.524 88.7802C386.701 88.7802 385.941 88.6697 385.26 88.4487C384.579 88.2277 383.994 87.8804 383.487 87.4227C382.997 86.9649 382.601 86.3808 382.332 85.6862C382.063 84.9916 381.92 84.1866 381.92 83.2552C381.92 82.3238 382.063 81.5187 382.363 80.8084C382.664 80.098 383.06 79.5297 383.551 79.0561C384.057 78.5984 384.643 78.2511 385.323 78.0143C386.004 77.7775 386.716 77.667 387.46 77.667C387.951 77.667 388.394 77.7144 388.806 77.8091C389.201 77.9038 389.55 78.0143 389.835 78.1721C390.12 78.33 390.341 78.5036 390.499 78.7089C390.658 78.9141 390.737 79.1193 390.737 79.3403C390.737 79.5455 390.674 79.7349 390.563 79.9086C390.452 80.0822 390.309 80.2085 390.151 80.3032C389.835 80.1138 389.486 79.9402 389.107 79.7823C388.727 79.6244 388.252 79.5613 387.682 79.5613H387.666Z" fill="white"/>
<path d="M403.669 83.208C403.669 84.0604 403.542 84.8339 403.289 85.5127C403.036 86.2073 402.672 86.7914 402.229 87.265C401.77 87.7385 401.216 88.1174 400.551 88.37C399.886 88.6225 399.158 88.7646 398.35 88.7646C397.543 88.7646 396.799 88.6383 396.15 88.37C395.501 88.1016 394.931 87.7385 394.472 87.265C394.013 86.7914 393.665 86.2073 393.412 85.5127C393.159 84.8181 393.032 84.0604 393.032 83.208C393.032 82.3556 393.159 81.582 393.412 80.9033C393.665 80.2087 394.029 79.6404 394.488 79.151C394.947 78.6774 395.517 78.2986 396.182 78.046C396.847 77.7934 397.575 77.6514 398.366 77.6514C399.158 77.6514 399.886 77.7777 400.551 78.046C401.216 78.3144 401.77 78.6775 402.244 79.1668C402.703 79.6562 403.068 80.2402 403.321 80.919C403.574 81.5978 403.701 82.3713 403.701 83.2238L403.669 83.208ZM398.335 79.5299C397.432 79.5299 396.72 79.8456 396.198 80.4928C395.675 81.14 395.406 82.0398 395.406 83.208C395.406 84.3761 395.66 85.2759 396.166 85.9074C396.673 86.5388 397.401 86.8545 398.319 86.8545C399.237 86.8545 399.965 86.5388 400.472 85.9074C400.978 85.2759 401.231 84.3761 401.231 83.208C401.231 82.0398 400.978 81.1558 400.456 80.5086C399.933 79.8614 399.221 79.5299 398.303 79.5299H398.335Z" fill="white"/>
<path d="M408.212 88.591C407.784 88.591 407.452 88.5121 407.246 88.3384C407.041 88.1648 406.93 87.8964 406.93 87.5018V73.8943C407.04 73.8628 407.183 73.8312 407.373 73.7838C407.563 73.7365 407.784 73.7207 408.006 73.7207C408.449 73.7207 408.766 73.7996 408.972 73.9733C409.177 74.1311 409.288 74.4153 409.288 74.8099V88.4331C409.162 88.4805 409.019 88.5121 408.829 88.5594C408.639 88.591 408.433 88.6226 408.212 88.6226V88.591Z" fill="white"/>
<path d="M417.013 77.6514C418.406 77.6514 419.514 77.9513 420.337 78.567C421.16 79.1668 421.571 80.1298 421.571 81.4242V86.6493C421.571 86.9966 421.492 87.265 421.334 87.4386C421.176 87.628 420.97 87.8017 420.685 87.9595C420.289 88.1805 419.799 88.3858 419.181 88.5436C418.564 88.7015 417.852 88.7962 417.044 88.7962C415.588 88.7962 414.448 88.512 413.641 87.9438C412.834 87.3755 412.422 86.5388 412.422 85.4338C412.422 84.4393 412.739 83.6974 413.372 83.1606C414.005 82.6397 414.923 82.324 416.126 82.1977L419.245 81.882V81.3926C419.245 80.7296 419.039 80.256 418.596 79.9561C418.168 79.6562 417.567 79.5141 416.807 79.5141C416.206 79.5141 415.636 79.593 415.082 79.7667C414.528 79.9245 414.037 80.114 413.594 80.3192C413.451 80.1929 413.309 80.0508 413.214 79.8772C413.119 79.7035 413.056 79.5141 413.056 79.3089C413.056 79.0563 413.119 78.8511 413.245 78.6775C413.372 78.5038 413.578 78.3775 413.847 78.2512C414.274 78.046 414.749 77.8882 415.287 77.7934C415.826 77.6987 416.395 77.6514 416.997 77.6514H417.013ZM417.06 86.965C417.583 86.965 418.042 86.9177 418.437 86.8072C418.833 86.6967 419.102 86.5862 419.276 86.4757V83.6342L416.823 83.8868C416.126 83.9657 415.62 84.1078 415.272 84.3446C414.923 84.5814 414.749 84.9286 414.749 85.4022C414.749 85.8758 414.939 86.2862 415.319 86.5546C415.699 86.8387 416.285 86.965 417.076 86.965H417.06Z" fill="white"/>
<path d="M433 85.5751C433 86.5696 432.62 87.3589 431.876 87.9271C431.132 88.4954 430.04 88.7796 428.615 88.7796C428.03 88.7796 427.491 88.7322 427.001 88.6533C426.51 88.5744 426.083 88.4323 425.734 88.2744C425.386 88.1166 425.101 87.9114 424.911 87.6904C424.721 87.4694 424.626 87.2168 424.626 86.9484C424.626 86.7274 424.69 86.5222 424.801 86.317C424.911 86.1276 425.07 85.9697 425.26 85.8434C425.687 86.1118 426.162 86.3643 426.7 86.5853C427.238 86.8063 427.871 86.9169 428.584 86.9169C429.264 86.9169 429.771 86.8064 430.135 86.5696C430.499 86.3328 430.673 86.0013 430.673 85.5751C430.673 85.1962 430.546 84.8963 430.309 84.6753C430.056 84.4543 429.692 84.2806 429.217 84.1543L427.681 83.7439C426.668 83.4755 425.909 83.1125 425.434 82.6389C424.959 82.1811 424.706 81.5339 424.706 80.7288C424.706 80.3026 424.801 79.8921 424.975 79.5133C425.149 79.1344 425.418 78.8029 425.766 78.5188C426.114 78.2346 426.558 78.0294 427.08 77.8716C427.602 77.7137 428.204 77.6348 428.884 77.6348C429.423 77.6348 429.913 77.6821 430.357 77.761C430.8 77.84 431.18 77.9505 431.496 78.0926C431.813 78.2346 432.066 78.4083 432.256 78.6135C432.43 78.8187 432.525 79.0397 432.525 79.2923C432.525 79.5449 432.478 79.7343 432.367 79.9079C432.256 80.0816 432.129 80.2236 431.955 80.3184C431.686 80.1605 431.29 79.9711 430.752 79.7816C430.214 79.5922 429.644 79.4817 429.027 79.4817C428.41 79.4817 427.903 79.5922 427.539 79.8132C427.175 80.0342 427.001 80.3341 427.001 80.7288C427.001 81.0287 427.096 81.2813 427.302 81.4707C427.507 81.6602 427.856 81.818 428.346 81.9443L429.644 82.2758C430.784 82.5757 431.623 82.9862 432.161 83.4913C432.699 83.9965 432.968 84.691 432.968 85.5593L433 85.5751Z" fill="white"/>
</g>
<defs>
<clipPath id="clip0_37_328">
<rect width="433" height="92" fill="white"/>
</clipPath>
</defs>
</svg>
